<?xml version="1.0" encoding="utf-8"?>

<!DOCTYPE svg PUBLIC "-//W3C//DTD SVG 1.1//EN" "http://www.w3.org/Graphics/SVG/1.1/DTD/svg11.dtd">
<svg version="1.1" id="Layer_1" xmlns="http://www.w3.org/2000/svg" xmlns:xlink="http://www.w3.org/1999/xlink" x="0px" y="0px"
	 viewBox="0 0 1659.047 1659.048" enable-background="new 0 0 1659.047 1659.048" xml:space="preserve">
<g>
	<path fill="none" d="M1081.345,863.049c-16.27-42.288-30.003-64.21-62.123-117.99c12.933-12.934,349.896-349.896,362.481-362.481
		c0,10.016,0,336.434,0,341.57c5.352-5.352,138.668-138.668,148.825-148.825c0-9.938,0-443.813,0-446.807
		c-12.838,0-427.354,0-446.805,0c-50.608,50.608-27.031,27.031-148.822,148.825c7.077,0,327.652,0,341.569,0
		c-7.766,7.766-354.819,354.819-362.481,362.481c-50.469-30.144-140.652-91.325-279.061-94.253
		c-200.074-4.527-389.654,115.315-466.982,297.537c-53.586,127.046-50.93,264.328-2.994,381.376
		c137.513,337.254,595.768,424.317,842.329,118.349C1110.165,1211.511,1145.419,1033.1,1081.345,863.049z M670.857,1388.52
		c-47.747,6.041-79.316,4.022-121.469-3.65c-90.43-20.696-156.5-64.062-209.373-131.392c-7.572-9.18-31.713-43.692-46.967-81.868
		c-34.805-88.199-34.935-178.252,0-266.779c13.829-34.628,36.554-69.243,46.967-81.868
		c185.277-235.865,558.135-159.112,627.33,143.215C1010.029,1180.914,857.238,1364.268,670.857,1388.52z"/>
	<path fill="none" d="M754.632,821.286c-17.685-11.2-43.604-22.479-59.217-26.845c-212.305-59.69-388.581,142.405-310.694,339.829
		c11.072,27.913,29.574,53.932,33.818,58.937c40.314,51.274,88.392,80.107,150.74,94.696
		c62.056,10.982,110.449,4.032,162.134-19.957c31.247-16.115,57.876-34.925,81.896-62.759c21.54-24.775,38.462-54.087,48.769-84.733
		c4.881-14.347,6.059-20.53,8.329-30.255C890.832,985.459,849.534,882.072,754.632,821.286z"/>
	<polygon fill="#019A4A" points="491.93,1305.9 491.995,1305.765 491.995,1305.765 	"/>
	<path fill="#9913E6" d="M945.833,898.122c-16.06-35.421-30.836-60.734-60.928-95.404c-21.452-24.673-54.379-51.579-80.87-67.308
		c-47.744-27.624-85.84-41.502-146.488-49.171c-129.973-11.977-248.952,40.571-328.124,151.255
		c-5.352,7.241-18.097,28.591-20.721,33.934c-32.328,63.175-46.259,121.648-39.939,202.691c3.104,25.17,4.895,36.926,13.393,66.824
		c4.058,13.901,12.004,33.829,13.676,37.378c33.197,73.218,79.509,127.268,156.266,171.03
		c52.661,27.217,100.801,40.985,161.927,42.594c46.977,1.084,81.961-7.127,112.021-15.761
		c71.231-23.791,120.29-57.78,167.13-112.017c13.366-15.518,32.9-45.131,39.786-59.152c29.31-57.278,43.161-109.247,41.381-181.568
		C973.023,979.953,959.892,927.968,945.833,898.122z M952.17,1113.819c-12.071,52.14-33.33,95.08-65.675,136.286l-0.792-0.632l0,0
		l0.792,0.632c-34.66,43.959-83.726,81.719-145.206,105.949c-20.13,7.815-37.313,11.773-51.828,15.102
		c-39.365,7.141-69.725,9.447-116.694,3.503c-82.424-10.634-164.985-57.81-217.607-124.555l0.792-0.632l0,0l-0.792,0.632
		c-68.542-87.217-87.462-192.451-65.676-287.485c0.09,0.021,0.988,0.225,0.988,0.225l-0.988-0.225
		c12.076-52.166,33.417-95.24,65.675-136.286l0.792,0.632l0,0l-0.792-0.632c32.904-41.846,72.494-71.096,118.152-94.388l0.44,0.913
		l0,0l-0.44-0.913c203.812-95.485,430.637,22.377,478.859,230.675l-0.988,0.225c0,0,0.898-0.204,0.988-0.225
		C963.258,1010.987,963.693,1063.556,952.17,1113.819l-0.988-0.225C951.182,1113.594,952.08,1113.798,952.17,1113.819z"/>
	<path fill="#4914A0" d="M952.17,1113.819c11.066-48.27,11.545-100.84,0-151.198l-0.988,0.225c0,0,0.898-0.204,0.988-0.225
		C903.633,752.97,675.728,636.938,473.311,731.946l0.44,0.913l0,0l-0.44-0.913c-17.259,8.808-12.673,6.358-25.885,13.964
		c-30.736,17.742-66.266,47.449-92.267,80.424l0.792,0.632l0,0l-0.792-0.632c-31.975,40.708-53.485,83.653-65.675,136.286
		c0.09,0.021,0.988,0.225,0.988,0.225l-0.988-0.225c-22.453,97.943-1.195,202.343,65.676,287.485l0.792-0.632l0,0l-0.792,0.632
		c133.207,168.957,396.691,171.221,531.335,0.001l-0.792-0.632l0,0l0.792,0.632C918.631,1209.193,940.038,1166.227,952.17,1113.819
		l-0.988-0.225C951.182,1113.594,952.08,1113.798,952.17,1113.819z M938.521,1110.717c-8.551,36.991-20.261,63.919-36.741,92.588
		c-6.626,12.023-22.98,34.637-26.222,38.07l-0.792-0.633l0,0l0.792,0.632c-24.788,31.524-59.136,60.183-88.481,77.127
		c-12.828,7.383-8.175,4.89-24.815,13.39l-0.44-0.913l0,0l0.44,0.913c-91.258,42.898-191.243,43.076-282.875-0.001l0.44-0.913l0,0
		l-0.44,0.913c-41.294-21.094-74.511-45.385-104.656-80.157c-6.692-7.735-8.641-10.36-8.641-10.36l0.792-0.633l0,0l-0.792,0.633
		c-65.878-83.9-83.838-184.953-62.964-275.651c0.09,0.021,0.988,0.225,0.988,0.225l-0.988-0.225
		c11.537-49.911,31.979-91.226,62.963-130.658l0.792,0.632l0,0l-0.792-0.632c32.452-41.275,70.232-68.519,113.297-90.517l0.44,0.913
		l0,0l-0.44-0.913c144.76-68.035,306.557-23.14,396.172,90.517l-0.792,0.633l0,0l0.792-0.633
		C942.055,919.752,959.126,1021.188,938.521,1110.717l-0.988-0.225C937.533,1110.492,938.431,1110.697,938.521,1110.717z"/>
	<path fill="#1D3DDD" d="M938.521,1110.717c20.764-90.352,3.276-191.355-62.964-275.653l-0.792,0.633l0,0l0.792-0.633
		c-88.837-112.981-250.174-158.858-396.172-90.517l0.44,0.913l0,0l-0.44-0.913c-44.987,22.979-81.819,50.682-113.297,90.517
		l0.792,0.632l0,0l-0.792-0.632c-31.251,39.772-51.48,81.076-62.963,130.658c0.09,0.021,0.988,0.225,0.988,0.225l-0.988-0.225
		c-21.742,94.613-1.127,194.084,62.964,275.651l0.792-0.633l0,0l-0.792,0.633c30.697,39.043,69.072,67.925,113.297,90.517
		l0.44-0.913l0,0l-0.44,0.913c90.215,42.41,189.91,43.531,282.875,0.001l-0.44-0.913l0,0l0.44,0.913
		c44.524-22.756,80.947-49.578,113.296-90.517l-0.792-0.632l0,0l0.792,0.633C906.535,1201.95,926.979,1160.624,938.521,1110.717
		l-0.988-0.225C937.533,1110.492,938.431,1110.697,938.521,1110.717z M924.873,1107.614c-12.514,54.2-35.765,97.132-71.305,138.154
		c-22.959,26.501-62.366,57.665-98.816,74.171c-33.099,14.989-57.006,22.849-101.521,28.496
		c-116.137,10.521-215.915-39.119-276.191-115.793l0.792-0.632l0,0l-0.792,0.632c-61.877-78.775-80.725-174.927-60.253-263.814
		c0.09,0.021,0.988,0.225,0.988,0.225l-0.988-0.225c11.184-48.439,31.07-87.872,60.254-125.027l0.792,0.632l0,0l-0.792-0.632
		c116.811-148.597,353.816-163.501,486.608-1.236C926.731,922.768,945.438,1018.326,924.873,1107.614l-0.988-0.225
		C923.885,1107.389,924.783,1107.594,924.873,1107.614z"/>
	<path fill="#019A4A" d="M924.873,1107.614c9.132-39.65,9.758-77.712,4.173-117.321c-6.215-34.452-12.237-58.298-33.108-99.05
		c-4.755-9.798-21.974-37.007-35.071-52.143c-41.525-47.956-83.756-77.304-147.296-98.748
		c-18.774-5.326-52.085-15.042-98.752-13.871c-44.624,1.144-82.337,9.382-127.912,30.021c-36.503,16.531-79.843,49.1-109.867,87.297
		l0.792,0.632l0,0l-0.792-0.632c-29.603,37.687-49.225,77.233-60.254,125.027c0.09,0.021,0.988,0.225,0.988,0.225l-0.988-0.225
		c-20.267,88.006-1.96,184.612,60.253,263.814l0.792-0.632l0,0l-0.792,0.632c116.73,148.516,353.693,163.637,486.607,1.235
		C896.409,1192.221,914.823,1151.076,924.873,1107.614l-0.988-0.225C923.885,1107.389,924.783,1107.594,924.873,1107.614z
		 M911.224,1104.512c-10.503,45.573-29.256,83.402-57.54,119.396l-0.792-0.633l0,0l0.792,0.632
		c-27.728,35.284-62.619,61.773-103.582,82.772l-0.44-0.913l0,0l0.44,0.913c-90.62,42.328-187.671,36.318-263.658-2.621
		c-41.217-21.102-68.143-44.808-94.888-75.66c-11.32-13.049-28.427-39.305-33.499-49.806
		c-23.378-45.633-27.583-72.396-31.612-94.577c-12.268-87.286,9.944-165.867,61.528-231.477l0.792,0.632l0,0l-0.792-0.632
		c80.473-102.401,227.647-145.612,362.13-82.77l-0.44,0.913l0,0l0.44-0.913c16.042,8.224,9.613,4.743,24.91,13.525
		c62.697,37.066,116.843,104.596,136.213,188.642c8.638,37.402,9.378,73.732,3.988,112.081
		C911.631,1103.745,911.224,1104.512,911.224,1104.512l-0.988-0.225C910.236,1104.287,911.134,1104.491,911.224,1104.512z"/>
	<path fill="#FDE000" d="M911.224,1104.511c8.672-37.549,9.353-73.906,3.988-112.08c-4.047-22.274-8.256-48.987-31.612-94.578
		c-4.217-8.73-20.808-35.156-33.499-49.808c-34.041-39.302-61.019-58.297-100-78.28l-0.44,0.913l0,0l0.44-0.913
		c-133.881-62.553-281.204-20.207-362.13,82.77l0.792,0.632l0,0l-0.792-0.632c-8.9,11.327-4.309,5.415-12.471,16.754
		c-4.171,5.571-15.429,24.389-17.445,28.563c-27.466,53.614-38.784,102.446-33.596,170.644c2.626,20.901,3.967,30.47,11.272,56.211
		c3.326,11.472,10.23,28.774,11.499,31.427c24.661,54.469,52.777,87.314,95.28,120.733c20.188,14.392,20.223,14.006,36.31,23.285
		c92.249,47.195,185.628,46.559,271.28,6.524l-0.44-0.913l0,0l0.44,0.913c17.458-8.95,22.96-11.403,46.523-28.011
		c21.052-15.017,43.289-37.186,57.059-54.761l-0.792-0.632l0,0l0.792,0.633c29.593-37.66,43.895-69.845,55.55-110.854
		C909.421,1112.347,911.224,1104.518,911.224,1104.511l-0.988-0.224C910.236,1104.287,911.134,1104.491,911.224,1104.511z
		 M491.93,1305.9l0.065-0.135l0,0L491.93,1305.9z M897.575,1101.409c-7.422,32.194-17.615,55.601-31.98,80.591
		c-7.491,13.731-22.849,33.173-22.849,33.173l-0.792-0.632l0,0l0.792,0.632c-26.105,33.33-63.945,63.214-103.713,81.155
		c-173.708,77.188-354.97-28.888-393.719-189.585c-5.46-23.696-6.339-32.365-7.991-53.699c-1.651-36.418,3.355-70.426,12.441-99.446
		c10.254-30.147,21.759-57.453,49.151-92.328l0.792,0.632l0,0l-0.792-0.632c75.382-96.258,215.747-139.412,345.104-78.9l-0.44,0.913
		l0,0l0.44-0.913c84.826,43.539,135.109,112.602,153.557,192.662l-0.988,0.225c0,0,0.898-0.204,0.988-0.225
		C906.678,1014.34,907.364,1059.131,897.575,1101.409l-0.988-0.225C896.587,1101.184,897.485,1101.389,897.575,1101.409z"/>
	<path fill="#FF5A00" d="M897.575,1101.409c9.49-40.985,9.404-85.856,0-126.377l-0.988,0.225c0,0,0.898-0.204,0.988-0.225
		c-11.339-49.186-32.387-88.144-64.892-125.719c-16.917-19.597-44.551-42.046-64.929-54.056c-15.145-8.676-8.125-4.87-23.736-12.887
		l-0.44,0.913l0,0l0.44-0.913c-128.87-60.014-268.751-18.264-345.104,78.9l0.792,0.632l0,0l-0.792-0.632
		c-49.478,62.943-70.238,137.749-58.633,220.61c3.758,20.531,7.657,46.273,30.12,90.106c4.208,8.762,20.335,34.123,31.928,47.471
		c25.676,29.589,51.336,52.122,90.445,72.117c51.075,26.221,114.233,37.484,179.611,25.786c40.824-7.301,68.673-21.8,83.766-29.503
		c15.861-9.153,15.317-8.47,34.606-22.193c20.411-16.091,35.775-29.857,51.988-50.491l-0.792-0.632l0,0l0.792,0.632
		C869.738,1180.835,887.575,1144.786,897.575,1101.409l-0.988-0.225C896.587,1101.184,897.485,1101.389,897.575,1101.409z
		 M883.926,1098.307c-17.434,75.777-66.615,137.405-123.43,170.906c-14.846,8.483-6.903,4.201-22.566,12.251l-0.44-0.913l0,0
		l0.44,0.913c-76.675,35.561-158.455,35.389-234.21-0.001l0.44-0.913l0,0l-0.44,0.913c-15.546-7.995-7.862-3.851-22.564-12.251
		c-93.374-55.064-150.859-173.039-123.431-291.078c0.09,0.021,0.988,0.225,0.988,0.225l-0.988-0.225
		c9.631-41.86,26.953-76.129,52.122-108.133l0.792,0.632l0,0l-0.792-0.632c72.067-92.057,205.528-132.3,328.085-75.024l-0.44,0.913
		l0,0l0.44-0.913c37.529,19.299,64.722,39.452,93.035,73.953c0.547,0.699,0.839,1.071,0.84,1.071l-0.792,0.633l0,0l0.792-0.633
		C918.383,980.185,883.926,1094.943,883.926,1098.307l-0.988-0.225C882.938,1098.082,883.836,1098.286,883.926,1098.307z"/>
	<path fill="#D10E1C" d="M883.926,1098.307c17.366-74.562,2.57-158.766-52.119-228.306l-0.792,0.633l0,0l0.792-0.633
		c-19.569-24.997-42.869-44.561-69.279-61.483c-9.714-6.137-19.176-10.756-24.596-13.541l-0.44,0.913l0,0l0.44-0.913
		c-120.277-56.075-254.223-19.079-328.085,75.024l0.792,0.632l0,0l-0.792-0.632c-25.009,31.801-42.482,66.132-52.122,108.133
		c0.09,0.021,0.988,0.225,0.988,0.225l-0.988-0.225c-11.956,51.452-7.856,108.828,11.112,156.773
		c6.623,16.803,9.399,21.693,13.898,30.47c1.715,3.592,12.154,21.04,15.807,25.878c32.515,44.963,62.285,68.15,105.178,90.208
		l0.44-0.913l0,0l-0.44,0.913c77.035,35.906,158.745,35.258,234.21,0.001l-0.44-0.913l0,0l0.44,0.913
		c35.286-18.146,59.265-34.821,90.631-70.951C851.479,1184.184,873.702,1142.747,883.926,1098.307l-0.988-0.225
		C882.938,1098.082,883.836,1098.286,883.926,1098.307z M811.037,1207.815c-18.058,20.977-51.162,47.393-80.795,60.66
		c-27.848,12.52-46.424,18.599-82.869,23.262c-94.058,8.262-178.009-28.396-236.475-109.006
		c-3.389-4.466-13.396-21.207-14.928-24.437c-23.279-45.384-33.093-86.444-28.726-146.031c2.012-15.708,2.94-24.42,9.642-48.061
		c7.365-25.598,22.441-56.549,44.691-84.834c14.553-18.559,28.263-30.776,46.701-45.368c18.776-13.323,17.01-11.741,31.072-19.926
		c9.754-4.953,36.622-19.626,75.153-26.46c58.419-10.501,115.579-0.42,161.272,23.134c35.139,17.948,58.227,38.286,81.237,64.77
		c9.858,11.283,24.979,34.856,28.67,42.63c19.947,38.889,23.364,61.168,27.027,80.837c4.279,33.471,4.28,63.008-3.421,95.994
		C859.134,1139.364,839.805,1174.473,811.037,1207.815z"/>
	<path fill="#FF5A00" d="M1006.514,427.096l0.717,0.717L1006.514,427.096z"/>
	<path fill="#FDE000" d="M940.64,512.766l0.716,0.716L940.64,512.766z"/>
	<path fill="#9913E6" d="M1037.745,1324.829c31.294-47.559,54.672-93.466,71.945-155.989c10.522-38.017,14.867-75.921,14.867-78.144
		c0.528,0.058,1.007,0.111,1.007,0.111l-1.007-0.111c9.279-84.397-2.748-160.045-30.152-232.685
		c-16.91-43.958-32.476-68.741-57.528-110.688c0.292-0.531,144.436-144.566,144.866-144.996l0.717,0.717l0,0l-0.717-0.717
		l100.807-100.807l0.002,1.431l0,0l-0.002-1.431l85.154-85.155c0,17.348,0,323.514,0,341.571l14.023-14.023l0.002,1.431l0,0
		l-0.002-1.431c4.62-4.62,152.256-152.256,162.795-162.795c0-18.506,0-447.095,0-466.6c-19.382,0-446.953,0-466.6,0
		c-19.596,19.596-39.191,39.191-39.191,39.191l-0.717-0.717l0,0l0.717,0.717L915.133,277.314l-1.432-0.002
		c0,0,1.429,0.002,1.432,0.002l-14.023,14.023c18.057,0,324.215,0,341.57,0c-6.438,6.438-179.034,179.035-185.962,185.963
		l-0.717-0.717l0.717,0.717c-0.46,0.46-144.425,144.553-144.995,144.867c-52.526-31.37-56.112-33.256-82.024-45.451l0.422-0.921l0,0
		l-0.422,0.921c-38.193-17.741-83.263-31.936-127.797-38.96l0.162-1.001l0,0l-0.162,1.001
		c-191.336-30.362-374.566,53.929-477.963,185.403l-0.79-0.635l0,0l0.79,0.635c-27.762,35.212-50.739,71.761-68.858,114.423
		l-0.931-0.4l0,0l0.931,0.4c-55.05,130.547-52.456,271.576-3.086,392.198l-0.938,0.384l0,0l0.938-0.384
		c16.591,40.639,38.66,79.595,66.605,116.007l-0.805,0.616l0,0l0.805-0.616c35.39,46.216,79.629,85.463,111.532,107.053
		c70.281,49.838,158.112,81.086,228.5,87.929l-0.123,1.006l0,0l0.123-1.006c180.764,20.657,351.448-45.815,469.604-202.482
		l0.819,0.597l0,0l-0.819-0.597C1028.248,1338.292,1037.738,1324.839,1037.745,1324.829z M144.344,1162.694
		c-55.721-212.285,34.934-437.962,229.26-549.612c135.218-77.565,297.004-91.577,445.175-26.007
		c26.307,12.227,26.805,11.892,95.209,52.748c12.934-12.934,349.896-349.896,362.481-362.481c-10.016,0-336.433,0-341.569,0l0,0
		c17.548-17.548,129.869-129.869,148.825-148.825c19.843,0,433.395,0,446.805,0c0,12.585,0,435.608,0,446.805
		c-10.501,10.501-143.636,143.636-148.825,148.825c0-5.166,0-331.578,0-341.571c-8.184,8.184-354.945,354.946-362.48,362.481
		c37.047,62.031,91.046,140.354,94.412,288.196c-0.685,57.817-6.336,96.689-24.692,156.291
		c-17.505,50.564-38.691,94.889-72.006,140.493C758.273,1672.06,245.456,1551.273,144.344,1162.694z"/>
	<path fill="#4914A0" d="M1107.729,1220.251c24.697-65.019,36.776-136.448,33.216-209.651
		c-4.261-72.093-17.52-111.435-29.354-146.739c-18.945-51.747-37.474-81.481-57.058-114.272
		c0.182-0.626,60.876-61.132,61.337-61.593l0.717,0.717l0,0l-0.717-0.717l75.772-75.772l0.717,0.717l0,0l-0.717-0.717l90.936-90.936
		l0.002,1.431l0,0l-0.002-1.431l71.131-71.131v100.595l-1.014,1.011l0,0l1.014-1.011v201.312l-1.014,1.011l0,0l1.014-1.011v39.664
		l28.046-28.046l0.002,1.431l0,0l-0.002-1.431c1.514-1.514,175.336-175.336,176.766-176.766c0-6.987,0-479.482,0-486.394
		c-16.866,0-458.604,0-486.395,0c-23.609,23.608-180.328,180.332-204.808,204.812c7.936,0,335.222,0,341.569,0
		c-4.412,4.412-226.149,226.149-237.839,237.839l-0.717-0.717l0,0l0.717,0.717c-0.49,0.49-60.926,61.143-61.592,61.337
		c-45.355-27.088-50.25-29.383-73.926-40.519l0.422-0.921l0,0l-0.422,0.921c-79.915-37.074-172.881-53.989-268.701-43.472
		l-0.111-1.008l0,0l0.111,1.008c-94.934,10.42-177.546,44.796-254.298,98.94l-0.598-0.819l0,0l0.598,0.819
		c-37.619,28.395-70.21,57.727-99.501,94.933l-0.79-0.635l0,0l0.79,0.635c-184.546,233.931-134.706,563.796,91.698,737.147
		l-0.616,0.805l0,0l0.616-0.805c36.833,28.26,76.823,51.16,119.215,68.456l-0.384,0.938l0,0l0.384-0.938
		c66.936,27.357,130.744,34.67,132.998,34.67l-0.123,1.006l0,0l0.123-1.006c182.948,20.935,359.758-45.223,482.614-208.127
		l0.819,0.597l0,0l-0.819-0.597C1039.555,1346.538,1078.82,1296.17,1107.729,1220.251z M1029.061,1338.887l-0.819-0.597
		c-119.322,158.09-291.228,222.866-469.604,202.482l-0.123,1.006l0,0l0.123-1.006c-28.796-2.8-74.885-12.822-117.885-29.185
		c-91.136-34.98-166.332-92.908-222.147-165.797l-0.805,0.616l0,0l0.805-0.616c-26.58-34.635-49.26-73.465-66.605-116.007
		l-0.938,0.384l0,0l0.938-0.384c-50.027-122.382-51.295-263.391,3.086-392.198l-0.931-0.4l0,0l0.931,0.4
		c18.11-42.641,41.154-79.312,68.858-114.423l-0.79-0.635l0,0l0.79,0.635c105.622-133.985,289.118-215.385,477.963-185.403
		l0.162-1.001l0,0l-0.162,1.001c44.531,7.023,89.602,21.218,127.797,38.96l0.422-0.921l0,0l-0.422,0.921
		c26.856,12.639,31.238,15.12,82.024,45.451c0.527-0.29,144.57-144.442,144.995-144.867l-0.717-0.717l0.717,0.717
		c7.863-7.863,174.021-174.021,185.962-185.962c-17.393,0-323.519,0-341.576,0l14.023-14.023l-1.432-0.002
		c0,0,1.429,0.002,1.432,0.002l123.604-123.604l-0.717-0.717l0,0l0.717,0.717c0,0,19.596-19.596,39.191-39.191
		c19.659,0,447.24,0,466.6,0c0,20.271,0,448.078,0,466.6c-2.9,2.9-145.105,145.105-162.795,162.795l0.002,1.431l0,0l-0.002-1.431
		l-14.023,14.023c0-18.057,0-324.218,0-341.573l-85.154,85.155l0.002,1.431l0,0l-0.002-1.431l-100.807,100.807l0.717,0.717l0,0
		l-0.717-0.717c-0.463,0.463-144.55,144.422-144.866,144.996c21.919,36.701,107.928,159.195,87.68,343.373
		c0.528,0.058,1.007,0.111,1.007,0.111l-1.007-0.111c-9.736,88.978-43.294,174.87-96.314,247.594L1029.061,1338.887
		L1029.061,1338.887z"/>
	<path fill="#1D3DDD" d="M1144.932,930.928c-3.867-21.987-18.213-70.05-28.335-92.956c-18.366-43.252-28.691-59.804-44.404-86.114
		c-0.104-0.44,53.26-53.643,53.579-53.963l0.717,0.717l0,0l-0.717-0.717l75.772-75.772l0.717,0.717l0,0l-0.717-0.717
		c5.892-5.892,132.132-132.132,138.173-138.173c0,6.598,0,336.854,0,341.57l42.07-42.069l0.002,1.431l0,0l-0.002-1.431
		c2.912-2.912,187.939-187.939,190.737-190.737c0-9.014,0-496.189,0-506.189c-20.976,0-477.809,0-506.19,0
		c-23.604,23.604-205.212,205.211-232.807,232.807h59.495l-1.011,1.014l0,0l1.011-1.014c10.718,0,259.528,0,282.074,0
		c-5.966,5.966-132.247,132.247-138.173,138.173l-0.717-0.717l0,0l0.717,0.717l-75.772,75.772l-0.717-0.717l0,0l0.717,0.717
		c-0.356,0.356-53.473,53.695-53.963,53.58c-28.261-16.878-36.659-21.881-65.826-35.588l0.422-0.921l0,0l-0.422,0.921
		c-162.389-75.33-363.327-65.902-537.081,56.887l-0.598-0.819l0,0l0.598,0.819c-35.246,26.589-69.684,56.378-102.162,97.469
		l-0.79-0.635l0,0l0.79,0.635c-187.712,237.997-140.89,576.906,94.091,757.03l-0.616,0.805l0,0l0.616-0.805
		c224.893,172.376,563.754,143.268,746.779-97.425c4.863-6.454,3.234-4.294,7.866-10.439l0.819,0.598l0,0l-0.819-0.598
		c142.387-195.216,98.035-396.1,98.035-402.109c0.525-0.085,1.001-0.162,1.001-0.162l-1.001,0.162
		C1149.219,952.847,1145,931.283,1144.932,930.928z M1040.368,1347.138l-0.819-0.597
		c-121.283,160.908-296.923,229.29-482.614,208.127l-0.123,1.006l0,0l0.123-1.006c-33.82-3.31-84.954-15.034-132.998-34.67
		l-0.384,0.938l0,0l0.384-0.938c-41.891-17.1-81.895-39.822-119.215-68.456l-0.616,0.805l0,0l0.616-0.805
		C74.649,1275.25,31.224,944.712,213.024,714.395l-0.79-0.635l0,0l0.79,0.635c19.02-24.16,40.05-44.845,60.707-63.713
		c13.59-11.653,15.507-13.633,38.794-31.22l-0.598-0.819l0,0l0.598,0.819c30.194-21.3,50.652-33.043,58.234-36.943
		c56.022-30.993,125.427-54.244,196.064-61.997l-0.111-1.008l0,0l0.111,1.008c95.221-10.497,188.409,6.221,268.701,43.472
		l0.422-0.921l0,0l-0.422,0.921c21.141,9.943,25.442,11.562,73.926,40.519c0.623-0.182,61.133-60.878,61.592-61.337l-0.717-0.717
		l0,0l0.717,0.717c6.843-6.843,214.605-214.605,237.839-237.839c-6.802,0-333.533,0-341.569,0
		c23.911-23.911,177.963-177.963,204.812-204.812c27.79,0,469.509,0,486.395,0c0,6.801,0,479.997,0,486.395
		c-1.43,1.43-175.234,175.233-176.766,176.766l0.002,1.431l0,0l-0.002-1.431l-28.046,28.046v-39.664l-1.014,1.011l0,0l1.014-1.011
		V550.754l-1.014,1.011l0,0l1.014-1.011V450.159l-71.131,71.131l0.002,1.431l0,0l-0.002-1.431l-90.936,90.936l0.717,0.717l0,0
		l-0.717-0.717l-75.772,75.772l0.717,0.717l0,0l-0.717-0.717c-0.493,0.493-61.142,60.924-61.337,61.593
		c4.223,7.07,21.755,35.995,29.507,51.316c45.117,89.068,63.4,177.685,55.685,278.663c-6.541,85.634-39.095,174.749-82.113,240.552
		c-4.11,6.231-9.645,14.869-18.062,26.421L1040.368,1347.138L1040.368,1347.138z"/>
	<path fill="#019A4A" d="M1089.617,753.907c-0.063-0.058,236.039-236.105,236.1-236.165v60.931l-1.014,1.011l0,0l1.014-1.011
		v201.311l-1.014,1.011l0,0l1.014-1.011v79.327c5.403-5.403,203.45-203.449,209.311-209.31l0.717,0.717l0,0l-0.717-0.717
		l51.49-51.49c0-6.679,0-518.513,0-525.983c-7.456,0-519.311,0-525.984,0c-25.745,25.745-51.49,51.49-51.49,51.49l-0.717-0.717l0,0
		l0.717,0.717c-5.845,5.845-203.856,203.858-209.309,209.311c3.635,0,339.962,0,341.569,0
		c-4.816,4.816-108.913,108.913-114.279,114.279l-0.717-0.717l0,0l0.717,0.717c-4.4,4.4-117.317,117.316-121.708,121.708
		c-0.183,0.096,0.014,0.226-0.381-0.011c-23.292-13.91-31.303-18.341-57.741-30.763l0.422-0.921l0,0l-0.422,0.921
		c-41.785-19.372-90.122-34.549-138.586-42.241l0.162-1.001l0,0l-0.162,1.001c-47.43-7.528-94.015-9.172-144.841-3.609l-0.111-1.007
		l0,0l0.111,1.007C351.363,516.03,161.243,662.981,96.228,876.503c-51.332,170.919-18.797,354.117,89.03,494.816l-0.805,0.616l0,0
		l0.805-0.616c29.191,38.091,62.695,71.969,102.437,102.442l-0.616,0.805l0,0l0.616-0.805
		c39.082,29.951,80.923,53.869,125.637,72.142l-0.384,0.938l0,0l0.384-0.938c69.59,28.439,137.69,36.546,140.196,36.546
		l-0.123,1.006l0,0l0.123-1.006c53.697,6.142,92.838,5.191,144.859-1.159l0.138,1.004l0,0l-0.138-1.004
		c1-0.099,1.735-0.226,13.251-2.042c42.076-6.621,77.384-17.503,114-31.491c0.029-0.011,12.371-5.156,12.371-5.187l0.4,0.931l0,0
		l-0.4-0.931c48.613-20.653,87.913-46.096,125.431-75.711c40.075-31.934,70.865-66.854,98.717-103.821l0.819,0.597l0,0l-0.819-0.597
		c27.028-36.957,52.603-82.652,69.537-127.078l0.944,0.368l0,0l-0.944-0.368c12.156-31.911,24.633-68.716,32.981-127.362
		c0.886-6.21,1.616-13.111,1.616-13.311c0.528,0.058,1.008,0.111,1.008,0.111l-1.008-0.111
		c10.954-100.117-6.242-198.11-45.797-283.436l0.922-0.422l0,0l-0.922,0.422C1107.592,784.376,1102.102,774.71,1089.617,753.907z
		 M1149.893,952.523l-1.001,0.162c23.199,146.06-16.116,289.797-98.035,402.109l0.819,0.598l0,0l-0.819-0.598
		c-196.662,260.876-535.521,276.051-754.645,107.864l-0.616,0.805l0,0l0.616-0.805c-235.46-180.475-281.518-519.396-94.091-757.03
		l-0.79-0.635l0,0l0.79,0.635c29.037-36.742,63.667-68.412,102.162-97.469l-0.598-0.819l0,0l0.598,0.819
		c58.279-41.162,115.809-70.841,197.804-90.747c105.273-25.923,230.744-16.484,339.277,33.86l0.422-0.921l0,0l-0.422,0.921
		c29.591,13.906,37.992,18.965,65.826,35.588c0.501,0.118,0.237,0.054,0.49-0.108c0.645-0.645-6.774,6.775,53.473-53.472
		l-0.717-0.717l0,0l0.717,0.717l75.772-75.772l-0.717-0.717l0,0l0.717,0.717c5.892-5.892,132.132-132.132,138.173-138.173
		c-22.827,0-271.782,0-282.074,0l-1.011,1.014l0,0l1.011-1.014h-59.495c26.08-26.08,209.248-209.248,232.807-232.807
		c28.418,0,485.13,0,506.19,0c0,7.441,0,497.803,0,506.19c-2.792,2.793-187.829,187.829-190.737,190.737l0.002,1.431l0,0
		l-0.002-1.431l-42.07,42.069c0-4.718,0-334.975,0-341.573c-6.044,6.044-132.283,132.283-138.173,138.173l0.717,0.717l0,0
		l-0.717-0.717l-75.772,75.772l0.717,0.717l0,0l-0.717-0.717c-0.37,0.37-53.699,53.454-53.579,53.963
		c13.919,23.305,59.976,95.287,76.699,200.826C1149.418,952.6,1149.893,952.523,1149.893,952.523z"/>
	<polygon fill="#019A4A" points="1136.384,708.51 1136.384,708.51 1136.146,708.271 	"/>
	<path fill="#FDE000" d="M1222.054,642.635l-0.717-0.717c3.228-3.228,87.163-87.163,90.385-90.385v41.1l-1.014,1.011l0,0
		l1.014-1.011v201.311l-1.014,1.011l0,0l1.014-1.011v99.159c5.698-5.698,284.64-284.639,288.794-288.793
		c0-7.077,0-539.223,0-545.779c-26.353,0-525.724,0-545.779,0c-29.833,29.832-260.159,260.16-288.794,288.795
		c4.596,0,331.756,0,341.57,0l-29.062,29.062l-1.431-0.002c0,0,1.429,0.002,1.432,0.002c-1.501,1.501-174.06,174.06-175.496,175.496
		c-0.124,0.065,0.009,0.153-0.257-0.007c-96.824-57.83-216.345-86.716-340.461-73.098l-0.111-1.008l0,0l0.111,1.008
		c-76.043,8.376-150.637,33.176-211.648,66.91c-9.241,4.775-31.309,17.584-62.817,39.855l-0.598-0.819l0,0l0.598,0.819
		c-39.952,30.104-76.729,63.615-107.481,102.548l-0.79-0.635l0,0l0.79,0.635c-30.815,39.037-56.236,79.494-76.655,127.391
		l-0.931-0.4l0,0l0.931,0.4c-101.22,239.864-28.52,512.834,175.551,669.395l-0.616,0.805l0,0l0.616-0.805
		c84.227,64.538,187.168,102.978,272.644,111.467l-0.123,1.006l0,0l0.123-1.006c481.22,55.137,782.656-462.058,555.243-840.133
		c-0.039-0.048,0.055-0.079,0.076-0.119c5.011-5.011,33.248-33.249,38.402-38.403l0.717,0.717l0,0l-0.717-0.717l75.772-75.772
		L1222.054,642.635z M1121.42,811.434l-0.922,0.422c39.505,85.219,56.77,183.191,45.797,283.436
		c0.528,0.058,1.008,0.111,1.008,0.111l-1.008-0.111c-5.649,51.398-17.28,95.221-34.597,140.673l0.944,0.368l0,0l-0.944-0.368
		c-16.652,43.688-41.739,88.958-69.537,127.078l0.819,0.597l0,0l-0.819-0.597c-30.982,41.121-60.545,73.668-104.898,108.703
		c-36.837,29.085-79.199,53.811-119.25,70.829l0.4,0.931l0,0l-0.4-0.931c-31.625,13.358-48.638,18.755-81.61,27.555
		c-3.021,0.7-39.214,9.305-58.012,11.165l0.138,1.004l0,0l-0.138-1.004c-51.974,6.342-91.075,7.308-144.859,1.159l-0.123,1.006l0,0
		l0.123-1.006c-38.204-3.787-91.377-16.621-140.196-36.546l-0.384,0.938l0,0l0.384-0.938
		c-44.548-18.205-86.407-42.078-125.637-72.142l-0.616,0.805l0,0l0.616-0.805c-38.346-29.387-72.164-62.961-102.437-102.442
		l-0.805,0.616l0,0l0.805-0.616c-29.726-38.789-53.713-80.565-72.133-125.642c-20.024-48.999-32.97-103.886-36.537-140.199
		C39.16,778.179,275.68,524.355,563.772,492.697l-0.111-1.007l0,0l0.111,1.007c50.677-5.568,97.394-3.918,144.841,3.609l0.162-1.001
		l0,0l-0.162,1.001c48.976,7.773,97.232,23.081,138.586,42.241l0.422-0.921l0,0l-0.422,0.921
		c26.238,12.324,33.719,16.353,57.946,30.886c0.07,0.057,0.117-0.081,0.176-0.112c4.392-4.392,117.309-117.309,121.709-121.709
		l-0.717-0.717l0,0l0.717,0.717c5.553-5.553,109.625-109.626,114.279-114.279c-1.608,0-337.934,0-341.569,0
		c5.403-5.403,203.449-203.449,209.31-209.31l-0.717-0.717l0,0l0.717,0.717c0,0,25.745-25.745,51.49-51.49
		c6.669,0,518.536,0,525.984,0c0,7.47,0,519.304,0,525.984l-51.49,51.49l0.717,0.717l0,0l-0.717-0.717
		c-1.513,1.513-118.8,118.791-209.316,209.306v-79.327l-1.014,1.011l0,0l1.014-1.011V578.674l-1.014,1.011l0,0l1.014-1.011v-60.931
		c-0.065,0.065-236.168,236.104-236.1,236.165c12.797,21.321,17.985,30.507,30.881,57.949L1121.42,811.434L1121.42,811.434z
		 M1136.384,708.51l-0.239-0.239L1136.384,708.51L1136.384,708.51z"/>
	<path fill="#FF5A00" d="M1297.724,585.326c0,18.427,0,327.143,0,341.57c5.669-5.669,308.23-308.228,316.789-316.787
		c0-16.349,0-555.345,0-565.575c-9.849,0-548.184,0-565.574,0c-29.845,29.845-59.689,59.689-59.689,59.689l-0.717-0.717l0,0
		l0.717,0.717c-12.296,12.296-247.695,247.694-257.099,257.098c14.427,0,323.143,0,341.57,0
		c-0.131,0.131-173.142,173.266-173.263,173.126c-9.386-5.607-16.304-9.481-41.601-21.352l0.422-0.921l0,0l-0.422,0.921
		c-134.263-62.141-291.738-70.756-445.932-11.876l-0.368-0.944l0,0l0.368,0.944c-35.102,13.424-73.594,32.851-113.842,59.409
		c-0.17,0.112-19.561,13.409-19.561,13.612l-0.598-0.819l0,0l0.598,0.819c-41.761,31.453-77.734,64.012-110.138,105.086l-0.79-0.635
		l0,0l0.79,0.635c-31.489,39.872-57.665,81.498-78.602,130.632l-0.931-0.4l0,0l0.931,0.4
		c-82.135,194.476-53.552,414.163,72.258,578.387l-0.805,0.616l0,0l0.805-0.616c31.485,41.046,66.738,76.271,107.637,107.643
		l-0.616,0.805l0,0l0.616-0.805c40.954,31.376,84.646,56.425,132.06,75.827l-0.384,0.938l0,0l0.384-0.938
		c185.78,75.823,406.299,52.758,576.962-82.12l0.635,0.79l0,0l-0.635-0.79c19.066-15.073,43.315-37.52,61.071-56.855
		c123.118-134.559,177.967-308.307,148.54-493.342c-11.193-65.645-31.183-116.332-57.636-168.443
		c-0.422-0.832-3.801-6.961-4.364-7.92l-2.714-4.543c-0.15-0.129,106.495-106.632,106.635-106.772l0.717,0.717l0,0l-0.717-0.717
		l51.451-51.451l0.002,1.432l0,0l-0.002-1.432L1297.724,585.326z M1146.282,718.407L1146.282,718.407l-0.717-0.717
		c-38.886,38.886-21.282,21.283-38.402,38.403c0,0,72.667,109.984,76.232,266.32c7.271,325.656-266.842,615.718-631.551,573.932
		l-0.123,1.006l0,0l0.123-1.006c-33.518-3.34-89.094-15.156-143.795-37.484c-45.043-18.405-88.054-42.724-128.849-73.983
		l-0.616,0.805l0,0l0.616-0.805C75.262,1328.418,2.337,1055.682,103.649,815.483l-0.931-0.4l0,0l0.931,0.4
		c20.299-47.668,45.774-88.27,76.655-127.391l-0.79-0.635l0,0l0.79,0.635c32.721-41.42,68.074-72.854,107.481-102.548l-0.598-0.819
		l0,0l0.598,0.819c81.761-57.793,170.584-95.324,274.465-106.765l-0.111-1.008l0,0l0.111,1.008
		C760.751,457,902.968,551.884,902.968,551.884c5.01-5.01,33.247-33.247,38.401-38.401l-0.717-0.717l0,0l0.717,0.717
		c4.877-4.877,133.517-133.517,137.095-137.095l-1.432-0.002c0,0,1.428,0.002,1.431,0.002l29.062-29.062
		c-14.464,0-324.494,0-341.57,0c30.063-30.063,258.456-258.456,288.794-288.794c21.308,0,520.071,0,545.779,0
		c0,6.034,0,538.107,0,545.779c-4.154,4.154-283.097,283.096-288.795,288.794v-99.159l-1.014,1.011l0,0l1.014-1.011V592.634
		l-1.014,1.011l0,0l1.014-1.011v-41.1c-3.225,3.225-87.158,87.158-90.385,90.385l0.717,0.717l-0.717-0.717l-75.772,75.772
		L1146.282,718.407z"/>
	<path fill="#D10E1C" d="M1042.722,29.524c-32.813,32.814-307.889,307.889-346.809,346.809c10.016,0,336.433,0,341.569,0
		c-6.716,6.716-132.608,132.608-139.424,139.424c-47.541-26.208-111.876-49.763-175.92-60.843
		c-20.812-3.317-14.534-2.442-36.663-5.171c-55.858-6.805-124.784-2.626-175.414,7.642
		C153.769,531.88-34.554,870.974,48.546,1187.642c103.851,399.463,581.919,579.391,929.196,322.721
		c222.298-175.203,305.9-476.158,166.887-746.945c-0.099-0.181-0.132-0.239-0.231-0.42l-1.105-2.005
		c4.997-4.997,129.677-129.678,139.424-139.425c0,5.166,0,331.575,0,341.569c10.924-10.924,341.949-341.949,346.81-346.809
		c0-16.652,0-572.335,0-586.804C1613.555,29.524,1060.288,29.524,1042.722,29.524z M1282.688,601.796l-0.002-1.432l-51.451,51.451
		l0.717,0.717l0,0l-0.717-0.717c-0.168,0.168-106.816,106.618-106.635,106.772c17.814,29.819,40.694,82.471,52.477,126.651
		c18.462,69.364,22.343,121.655,19.572,183.767c-5.678,148.149-85.206,316.537-216.945,420.685l0.635,0.79l0,0l-0.635-0.79
		c-173.342,136.984-394.49,156.594-576.962,82.12l-0.384,0.938l0,0l0.384-0.938c-45.825-18.746-89.811-43.459-132.06-75.827
		l-0.616,0.805l0,0l0.616-0.805c-40.403-30.991-75.709-66.04-107.637-107.643l-0.805,0.616l0,0l0.805-0.616
		C37.367,1224.29,8.645,1004.74,90.786,809.954l-0.931-0.4l0,0l0.931,0.4c20.865-48.968,46.992-90.608,78.602-130.632l-0.79-0.635
		l0,0l0.79,0.635c33.157-42.029,70.414-75.169,110.138-105.086l-0.598-0.819l0,0l0.598,0.819
		c39.687-28.062,81.803-53.346,133.403-73.021l-0.368-0.944l0,0l0.368,0.944c155.635-59.403,312.812-49.76,445.932,11.876
		l0.422-0.921l0,0l-0.422,0.921c25.652,12.035,32.622,15.988,41.601,21.352c0.129,0.15,106.632-106.495,106.772-106.635
		l-0.717-0.717l0,0l0.717,0.717c7.866-7.866,59.377-59.377,66.491-66.491c-18.427,0-327.143,0-341.57,0
		c9.433-9.433,244.878-244.877,257.099-257.098l-0.717-0.717l0,0l0.717,0.717c0,0,29.845-29.845,59.689-59.689
		c17.287,0,555.42,0,565.574,0c0,8.962,0,549.036,0,565.574c-8.934,8.934-311.345,311.343-316.789,316.787
		c0-14.422,0-323.138,0-341.565l-15.039,15.039L1282.688,601.796L1282.688,601.796z"/>
</g>
</svg>
